<svg width="31.000000" height="31.000000" viewBox="0 0 31 31" fill="none" xmlns="http://www.w3.org/2000/svg" xmlns:xlink="http://www.w3.org/1999/xlink">
	<desc>
			Created with Pixso.
	</desc>
	<defs/>
	<path id="element" d="M18.81 29.84L18.82 19.54C18.87 19.15 19.19 18.79 19.61 18.72L29.93 18.73C30.32 18.79 30.64 18.43 30.71 17.91L30.74 12.16C30.79 11.77 30.44 11.45 29.91 11.37L19.59 11.36C19.2 11.3 18.84 10.98 18.76 10.57L18.77 0.27C18.83 -0.12 18.47 -0.44 17.94 -0.51L12.18 -0.54C11.79 -0.59 11.47 -0.24 11.39 0.28L11.39 10.58C11.33 10.98 11.01 11.33 10.6 11.41L0.28 11.39C-0.11 11.34 -0.43 11.69 -0.51 12.22L-0.53 17.97C-0.59 18.36 -0.23 18.68 0.29 18.75L10.62 18.76C11.01 18.82 11.37 19.14 11.44 19.55L11.44 29.85C11.38 30.24 11.74 30.56 12.26 30.64L18.02 30.66C18.44 30.59 18.76 30.23 18.81 29.84Z" fill="#FDD08D" fill-opacity="1.000000" fill-rule="nonzero"/>
</svg>
